<svg xmlns="http://www.w3.org/2000/svg" viewBox="0 0 64 64">
  <rect width="64" height="64" rx="12" fill="#0f172a"/>
  <path d="M14 47V16h13.2c6.2 0 10.1 3.2 10.1 8.1 0 2.9-1.5 5.2-4.1 6.4 3.4 1 5.4 3.6 5.4 7.2 0 5.7-4.4 9.3-11.5 9.3H14Zm7.1-18.4h5.1c2.6 0 4.1-1.3 4.1-3.5 0-2.1-1.5-3.4-4.1-3.4h-5.1v6.9Zm0 12.4h5.7c3 0 4.7-1.4 4.7-3.9s-1.7-3.9-4.7-3.9h-5.7V41Z" fill="#f8fafc"/>
  <path d="M39 47V16h5.2l6 10.5 6-10.5H61v31h-5.4V28.9l-4.2 7.3h-2.5l-4.2-7.3V47H39Z" fill="#d4af37"/>
  <path d="M8 8h48v4H8z" fill="#a71930"/>
</svg>
